<svg xmlns="http://www.w3.org/2000/svg" viewBox="0 0 100 100" width="100" height="100">
  <!-- Curry leaves plant -->
  <path d="M50,20 L50,80" stroke="#795548" stroke-width="2"/>
  <path d="M40,30 L50,40 L60,30" stroke="#2e7d32" stroke-width="2" fill="none"/>
  <path d="M35,40 L50,50 L65,40" stroke="#2e7d32" stroke-width="2" fill="none"/>
  <path d="M30,50 L50,60 L70,50" stroke="#2e7d32" stroke-width="2" fill="none"/>
  <path d="M35,60 L50,70 L65,60" stroke="#2e7d32" stroke-width="2" fill="none"/>
  <path d="M40,70 L50,80 L60,70" stroke="#2e7d32" stroke-width="2" fill="none"/>
  
  <!-- Leaves -->
  <ellipse cx="40" cy="30" rx="3" ry="1.5" fill="#4caf50"/>
  <ellipse cx="60" cy="30" rx="3" ry="1.5" fill="#4caf50"/>
  <ellipse cx="35" cy="40" rx="3" ry="1.5" fill="#4caf50"/>
  <ellipse cx="65" cy="40" rx="3" ry="1.5" fill="#4caf50"/>
  <ellipse cx="30" cy="50" rx="3" ry="1.5" fill="#4caf50"/>
  <ellipse cx="70" cy="50" rx="3" ry="1.5" fill="#4caf50"/>
  <ellipse cx="35" cy="60" rx="3" ry="1.5" fill="#4caf50"/>
  <ellipse cx="65" cy="60" rx="3" ry="1.5" fill="#4caf50"/>
  <ellipse cx="40" cy="70" rx="3" ry="1.5" fill="#4caf50"/>
  <ellipse cx="60" cy="70" rx="3" ry="1.5" fill="#4caf50"/>
</svg>