<svg xmlns="http://www.w3.org/2000/svg" viewBox="0 0 100 100" width="100" height="100">
  <!-- Mint plant -->
  <path d="M50,20 L50,80" stroke="#795548" stroke-width="2"/>
  <path d="M50,30 C40,25 30,30 35,40 C40,45 50,40 50,40" fill="#66bb6a"/>
  <path d="M50,30 C60,25 70,30 65,40 C60,45 50,40 50,40" fill="#66bb6a"/>
  <path d="M50,50 C40,45 30,50 35,60 C40,65 50,60 50,60" fill="#66bb6a"/>
  <path d="M50,50 C60,45 70,50 65,60 C60,65 50,60 50,60" fill="#66bb6a"/>
  <path d="M50,70 C40,65 30,70 35,80 C40,85 50,80 50,80" fill="#66bb6a"/>
  <path d="M50,70 C60,65 70,70 65,80 C60,85 50,80 50,80" fill="#66bb6a"/>
</svg>