<svg xmlns="http://www.w3.org/2000/svg" viewBox="0 0 100 100" width="100" height="100">
  <!-- Strawberry body -->
  <path d="M50,20 C65,20 75,35 75,55 C75,75 65,90 50,90 C35,90 25,75 25,55 C25,35 35,20 50,20 Z" fill="#e53935"/>
  
  <!-- Strawberry seeds -->
  <circle cx="35" cy="40" r="1.5" fill="#ffeb3b"/>
  <circle cx="45" cy="35" r="1.5" fill="#ffeb3b"/>
  <circle cx="55" cy="35" r="1.5" fill="#ffeb3b"/>
  <circle cx="65" cy="40" r="1.5" fill="#ffeb3b"/>
  <circle cx="40" cy="50" r="1.5" fill="#ffeb3b"/>
  <circle cx="50" cy="45" r="1.5" fill="#ffeb3b"/>
  <circle cx="60" cy="50" r="1.5" fill="#ffeb3b"/>
  <circle cx="35" cy="60" r="1.5" fill="#ffeb3b"/>
  <circle cx="45" cy="55" r="1.5" fill="#ffeb3b"/>
  <circle cx="55" cy="55" r="1.5" fill="#ffeb3b"/>
  <circle cx="65" cy="60" r="1.5" fill="#ffeb3b"/>
  <circle cx="40" cy="70" r="1.5" fill="#ffeb3b"/>
  <circle cx="50" cy="65" r="1.5" fill="#ffeb3b"/>
  <circle cx="60" cy="70" r="1.5" fill="#ffeb3b"/>
  <circle cx="45" cy="75" r="1.5" fill="#ffeb3b"/>
  <circle cx="55" cy="75" r="1.5" fill="#ffeb3b"/>
  
  <!-- Strawberry stem and leaves -->
  <path d="M50,20 L50,15 C50,15 45,10 40,15 C35,20 45,25 50,20 Z" fill="#4caf50"/>
  <path d="M50,20 L50,15 C50,15 55,10 60,15 C65,20 55,25 50,20 Z" fill="#4caf50"/>
  <path d="M50,15 L50,10" stroke="#4caf50" stroke-width="2" stroke-linecap="round"/>
</svg>